<?xml version="1.0" encoding="utf-8" standalone="no"?>
<!DOCTYPE svg PUBLIC "-//W3C//DTD SVG 1.1//EN"
  "http://www.w3.org/Graphics/SVG/1.1/DTD/svg11.dtd">
<!-- Created with matplotlib (https://matplotlib.org/) -->
<svg height="377.39625pt" version="1.1" viewBox="0 0 562.728125 377.39625" width="562.728125pt" xmlns="http://www.w3.org/2000/svg" xmlns:xlink="http://www.w3.org/1999/xlink">
 <metadata>
  <rdf:RDF xmlns:cc="http://creativecommons.org/ns#" xmlns:dc="http://purl.org/dc/elements/1.1/" xmlns:rdf="http://www.w3.org/1999/02/22-rdf-syntax-ns#">
   <cc:Work>
    <dc:type rdf:resource="http://purl.org/dc/dcmitype/StillImage"/>
    <dc:date>2021-02-09T23:47:02.445562</dc:date>
    <dc:format>image/svg+xml</dc:format>
    <dc:creator>
     <cc:Agent>
      <dc:title>Matplotlib v3.3.4, https://matplotlib.org/</dc:title>
     </cc:Agent>
    </dc:creator>
   </cc:Work>
  </rdf:RDF>
 </metadata>
 <defs>
  <style type="text/css">*{stroke-linecap:butt;stroke-linejoin:round;}</style>
 </defs>
 <g id="figure_1">
  <g id="patch_1">
   <path d="M 0 377.39625 
L 562.728125 377.39625 
L 562.728125 0 
L 0 0 
z
" style="fill:#ffffff;"/>
  </g>
  <g id="axes_1">
   <g id="patch_2">
    <path d="M 53.328125 105.035294 
L 555.528125 105.035294 
L 555.528125 7.2 
L 53.328125 7.2 
z
" style="fill:#ffffff;"/>
   </g>
   <g id="matplotlib.axis_1">
    <g id="xtick_1">
     <g id="line2d_1">
      <defs>
       <path d="M 0 0 
L 0 3.5 
" id="m888e01c7fe" style="stroke:#000000;stroke-width:0.8;"/>
      </defs>
      <g>
       <use style="stroke:#000000;stroke-width:0.8;" x="76.015308" xlink:href="#m888e01c7fe" y="105.035294"/>
      </g>
     </g>
    </g>
    <g id="xtick_2">
     <g id="line2d_2">
      <g>
       <use style="stroke:#000000;stroke-width:0.8;" x="133.101486" xlink:href="#m888e01c7fe" y="105.035294"/>
      </g>
     </g>
    </g>
    <g id="xtick_3">
     <g id="line2d_3">
      <g>
       <use style="stroke:#000000;stroke-width:0.8;" x="190.187665" xlink:href="#m888e01c7fe" y="105.035294"/>
      </g>
     </g>
    </g>
    <g id="xtick_4">
     <g id="line2d_4">
      <g>
       <use style="stroke:#000000;stroke-width:0.8;" x="247.273843" xlink:href="#m888e01c7fe" y="105.035294"/>
      </g>
     </g>
    </g>
    <g id="xtick_5">
     <g id="line2d_5">
      <g>
       <use style="stroke:#000000;stroke-width:0.8;" x="304.360021" xlink:href="#m888e01c7fe" y="105.035294"/>
      </g>
     </g>
    </g>
    <g id="xtick_6">
     <g id="line2d_6">
      <g>
       <use style="stroke:#000000;stroke-width:0.8;" x="361.446199" xlink:href="#m888e01c7fe" y="105.035294"/>
      </g>
     </g>
    </g>
    <g id="xtick_7">
     <g id="line2d_7">
      <g>
       <use style="stroke:#000000;stroke-width:0.8;" x="418.532378" xlink:href="#m888e01c7fe" y="105.035294"/>
      </g>
     </g>
    </g>
    <g id="xtick_8">
     <g id="line2d_8">
      <g>
       <use style="stroke:#000000;stroke-width:0.8;" x="475.618556" xlink:href="#m888e01c7fe" y="105.035294"/>
      </g>
     </g>
    </g>
    <g id="xtick_9">
     <g id="line2d_9">
      <g>
       <use style="stroke:#000000;stroke-width:0.8;" x="532.704734" xlink:href="#m888e01c7fe" y="105.035294"/>
      </g>
     </g>
    </g>
   </g>
   <g id="matplotlib.axis_2">
    <g id="ytick_1">
     <g id="line2d_10">
      <defs>
       <path d="M 0 0 
L -3.5 0 
" id="m1d65efbde6" style="stroke:#000000;stroke-width:0.8;"/>
      </defs>
      <g>
       <use style="stroke:#000000;stroke-width:0.8;" x="53.328125" xlink:href="#m1d65efbde6" y="100.588255"/>
      </g>
     </g>
     <g id="text_1">
      <!-- 0 -->
      <g transform="translate(39.965625 104.387474)scale(0.1 -0.1)">
       <defs>
        <path d="M 31.78125 66.40625 
Q 24.171875 66.40625 20.328125 58.90625 
Q 16.5 51.421875 16.5 36.375 
Q 16.5 21.390625 20.328125 13.890625 
Q 24.171875 6.390625 31.78125 6.390625 
Q 39.453125 6.390625 43.28125 13.890625 
Q 47.125 21.390625 47.125 36.375 
Q 47.125 51.421875 43.28125 58.90625 
Q 39.453125 66.40625 31.78125 66.40625 
z
M 31.78125 74.21875 
Q 44.046875 74.21875 50.515625 64.515625 
Q 56.984375 54.828125 56.984375 36.375 
Q 56.984375 17.96875 50.515625 8.265625 
Q 44.046875 -1.421875 31.78125 -1.421875 
Q 19.53125 -1.421875 13.0625 8.265625 
Q 6.59375 17.96875 6.59375 36.375 
Q 6.59375 54.828125 13.0625 64.515625 
Q 19.53125 74.21875 31.78125 74.21875 
z
" id="DejaVuSans-48"/>
       </defs>
       <use xlink:href="#DejaVuSans-48"/>
      </g>
     </g>
    </g>
    <g id="ytick_2">
     <g id="line2d_11">
      <g>
       <use style="stroke:#000000;stroke-width:0.8;" x="53.328125" xlink:href="#m1d65efbde6" y="74.036628"/>
      </g>
     </g>
     <g id="text_2">
      <!-- 100 -->
      <g transform="translate(27.240625 77.835847)scale(0.1 -0.1)">
       <defs>
        <path d="M 12.40625 8.296875 
L 28.515625 8.296875 
L 28.515625 63.921875 
L 10.984375 60.40625 
L 10.984375 69.390625 
L 28.421875 72.90625 
L 38.28125 72.90625 
L 38.28125 8.296875 
L 54.390625 8.296875 
L 54.390625 0 
L 12.40625 0 
z
" id="DejaVuSans-49"/>
       </defs>
       <use xlink:href="#DejaVuSans-49"/>
       <use x="63.623047" xlink:href="#DejaVuSans-48"/>
       <use x="127.246094" xlink:href="#DejaVuSans-48"/>
      </g>
     </g>
    </g>
    <g id="ytick_3">
     <g id="line2d_12">
      <g>
       <use style="stroke:#000000;stroke-width:0.8;" x="53.328125" xlink:href="#m1d65efbde6" y="47.485001"/>
      </g>
     </g>
     <g id="text_3">
      <!-- 200 -->
      <g transform="translate(27.240625 51.28422)scale(0.1 -0.1)">
       <defs>
        <path d="M 19.1875 8.296875 
L 53.609375 8.296875 
L 53.609375 0 
L 7.328125 0 
L 7.328125 8.296875 
Q 12.9375 14.109375 22.625 23.890625 
Q 32.328125 33.6875 34.8125 36.53125 
Q 39.546875 41.84375 41.421875 45.53125 
Q 43.3125 49.21875 43.3125 52.78125 
Q 43.3125 58.59375 39.234375 62.25 
Q 35.15625 65.921875 28.609375 65.921875 
Q 23.96875 65.921875 18.8125 64.3125 
Q 13.671875 62.703125 7.8125 59.421875 
L 7.8125 69.390625 
Q 13.765625 71.78125 18.9375 73 
Q 24.125 74.21875 28.421875 74.21875 
Q 39.75 74.21875 46.484375 68.546875 
Q 53.21875 62.890625 53.21875 53.421875 
Q 53.21875 48.921875 51.53125 44.890625 
Q 49.859375 40.875 45.40625 35.40625 
Q 44.1875 33.984375 37.640625 27.21875 
Q 31.109375 20.453125 19.1875 8.296875 
z
" id="DejaVuSans-50"/>
       </defs>
       <use xlink:href="#DejaVuSans-50"/>
       <use x="63.623047" xlink:href="#DejaVuSans-48"/>
       <use x="127.246094" xlink:href="#DejaVuSans-48"/>
      </g>
     </g>
    </g>
    <g id="ytick_4">
     <g id="line2d_13">
      <g>
       <use style="stroke:#000000;stroke-width:0.8;" x="53.328125" xlink:href="#m1d65efbde6" y="20.933374"/>
      </g>
     </g>
     <g id="text_4">
      <!-- 300 -->
      <g transform="translate(27.240625 24.732592)scale(0.1 -0.1)">
       <defs>
        <path d="M 40.578125 39.3125 
Q 47.65625 37.796875 51.625 33 
Q 55.609375 28.21875 55.609375 21.1875 
Q 55.609375 10.40625 48.1875 4.484375 
Q 40.765625 -1.421875 27.09375 -1.421875 
Q 22.515625 -1.421875 17.65625 -0.515625 
Q 12.796875 0.390625 7.625 2.203125 
L 7.625 11.71875 
Q 11.71875 9.328125 16.59375 8.109375 
Q 21.484375 6.890625 26.8125 6.890625 
Q 36.078125 6.890625 40.9375 10.546875 
Q 45.796875 14.203125 45.796875 21.1875 
Q 45.796875 27.640625 41.28125 31.265625 
Q 36.765625 34.90625 28.71875 34.90625 
L 20.21875 34.90625 
L 20.21875 43.015625 
L 29.109375 43.015625 
Q 36.375 43.015625 40.234375 45.921875 
Q 44.09375 48.828125 44.09375 54.296875 
Q 44.09375 59.90625 40.109375 62.90625 
Q 36.140625 65.921875 28.71875 65.921875 
Q 24.65625 65.921875 20.015625 65.03125 
Q 15.375 64.15625 9.8125 62.3125 
L 9.8125 71.09375 
Q 15.4375 72.65625 20.34375 73.4375 
Q 25.25 74.21875 29.59375 74.21875 
Q 40.828125 74.21875 47.359375 69.109375 
Q 53.90625 64.015625 53.90625 55.328125 
Q 53.90625 49.265625 50.4375 45.09375 
Q 46.96875 40.921875 40.578125 39.3125 
z
" id="DejaVuSans-51"/>
       </defs>
       <use xlink:href="#DejaVuSans-51"/>
       <use x="63.623047" xlink:href="#DejaVuSans-48"/>
       <use x="127.246094" xlink:href="#DejaVuSans-48"/>
      </g>
     </g>
    </g>
   </g>
   <g id="line2d_14">
    <path clip-path="url(#p98361816e0)" d="M 76.155398 100.586372 
L 79.236225 100.564251 
L 82.659454 100.575114 
L 84.827473 100.565449 
L 85.512051 100.372291 
L 86.196742 100.398764 
L 86.767376 99.813863 
L 87.566126 98.784692 
L 88.250703 95.595222 
L 88.935395 95.913646 
L 89.619972 95.100099 
L 90.418836 89.273285 
L 91.103413 91.52227 
L 91.902163 91.715586 
L 92.472797 82.83766 
L 93.271547 80.978325 
L 93.956124 87.559162 
L 94.640816 91.710245 
L 95.439565 92.49222 
L 96.124143 86.281883 
L 96.808834 89.369288 
L 97.607584 93.947094 
L 99.091026 98.360223 
L 99.775603 99.297008 
L 100.460295 99.670883 
L 102.400083 100.180217 
L 102.970717 100.29306 
L 103.769352 100.271311 
L 104.454044 100.417538 
L 105.937485 100.171569 
L 107.649043 100.484187 
L 108.447793 100.505212 
L 109.703004 100.332142 
L 110.273523 100.539531 
L 110.844156 100.482562 
L 112.441542 100.515255 
L 113.126234 100.412955 
L 113.810811 100.525767 
L 118.032905 100.559791 
L 119.402288 100.564826 
L 120.65727 100.537508 
L 123.396037 100.578371 
L 124.080614 100.437486 
L 126.705094 100.581159 
L 127.503958 100.495616 
L 130.128324 100.584581 
L 133.323438 100.576049 
L 154.090932 100.497284 
L 154.77551 99.08368 
L 156.145007 95.796528 
L 156.943757 92.88233 
L 157.628335 85.358308 
L 158.313026 84.511049 
L 158.997604 86.20289 
L 159.682181 84.704231 
L 160.366873 86.247224 
L 160.937392 86.254944 
L 161.622084 75.038575 
L 162.306775 77.372914 
L 162.991353 81.214373 
L 163.676044 79.121487 
L 164.360622 80.267381 
L 165.045313 77.830234 
L 165.729891 61.757118 
L 166.414811 68.567292 
L 167.213675 80.827022 
L 167.898024 84.316756 
L 168.468543 90.109519 
L 169.039177 93.943654 
L 169.723754 96.346577 
L 170.52239 97.830323 
L 171.321254 98.640661 
L 172.005831 97.944991 
L 172.690523 98.634337 
L 173.375214 99.080203 
L 174.059792 99.314848 
L 174.744483 98.872542 
L 175.429175 99.596468 
L 176.113753 99.768559 
L 176.684386 99.51805 
L 177.483136 100.069237 
L 178.167713 99.825774 
L 178.966463 99.743124 
L 180.335846 100.174805 
L 181.020424 99.784353 
L 181.705115 100.16951 
L 183.074384 100.379351 
L 184.329595 100.339455 
L 185.698864 100.131697 
L 186.269384 100.429003 
L 187.524595 100.485993 
L 188.323344 100.192187 
L 189.008036 100.134237 
L 189.806786 100.476358 
L 191.176055 100.417561 
L 191.860632 100.23187 
L 192.659382 100.450716 
L 194.142823 100.492741 
L 194.827515 100.3401 
L 197.451995 100.522469 
L 198.136687 100.406351 
L 198.935436 100.5746 
L 200.761167 100.407126 
L 202.130436 100.521509 
L 203.956166 100.573462 
L 204.640743 100.479953 
L 206.694704 100.560674 
L 207.379396 100.390566 
L 209.319298 100.581259 
L 210.003761 100.066031 
L 210.688453 80.576992 
L 211.373145 73.598434 
L 212.057836 82.494462 
L 212.856586 81.98656 
L 213.65545 62.559491 
L 214.339913 50.605448 
L 215.024605 50.725166 
L 215.709182 53.043482 
L 216.393874 29.948694 
L 217.877315 66.116449 
L 218.561893 67.40865 
L 219.246699 63.132913 
L 219.931276 21.14983 
L 220.615854 42.074448 
L 221.300431 66.668673 
L 221.871065 78.286439 
L 222.555642 83.228151 
L 223.240334 75.1483 
L 224.039083 81.390659 
L 224.723775 89.495207 
L 225.408467 94.973734 
L 226.093044 94.647359 
L 228.147005 98.064457 
L 228.831582 98.802112 
L 229.516274 98.770698 
L 230.200851 97.670329 
L 230.885543 97.99943 
L 231.684293 99.126081 
L 232.368984 99.477354 
L 233.053676 98.737358 
L 233.852426 99.131316 
L 234.537003 99.657694 
L 235.221581 99.844536 
L 235.906386 99.216226 
L 236.590964 99.431428 
L 237.275541 99.831438 
L 237.960233 99.979118 
L 238.758983 99.430282 
L 240.128252 99.844248 
L 240.927116 99.965024 
L 241.611693 99.724103 
L 242.296385 99.937565 
L 242.980962 99.994376 
L 243.551482 100.27874 
L 244.350346 100.267239 
L 245.035037 99.648475 
L 245.605442 100.109395 
L 247.088884 100.154944 
L 247.773461 100.383703 
L 248.458153 99.875782 
L 249.256903 100.211278 
L 250.854402 100.189684 
L 251.425036 99.988314 
L 252.794305 100.359627 
L 254.163574 100.169894 
L 255.647015 100.483513 
L 257.016284 100.404185 
L 258.956073 100.478546 
L 259.526706 100.366922 
L 260.325456 100.443364 
L 261.010033 100.209456 
L 261.808783 100.397104 
L 262.493475 100.441255 
L 263.178052 100.355418 
L 263.862744 100.524072 
L 264.547435 100.400696 
L 265.346185 100.483789 
L 266.030763 100.38975 
L 266.715454 100.096656 
L 267.514204 100.488075 
L 275.501816 100.448049 
L 276.300566 100.346877 
L 278.582757 100.438812 
L 279.267335 99.640012 
L 280.066085 94.596609 
L 280.750662 86.139026 
L 281.549412 68.340247 
L 282.234104 68.53603 
L 282.918795 71.141572 
L 283.603373 66.54784 
L 284.288064 60.674165 
L 284.858583 20.963093 
L 285.429217 47.161213 
L 286.113794 68.033298 
L 286.684314 79.227638 
L 287.369005 75.707952 
L 288.167755 72.267942 
L 288.966505 56.862237 
L 290.335774 80.885583 
L 291.020351 86.68332 
L 291.705043 85.134133 
L 293.188484 94.35012 
L 293.873062 96.235467 
L 294.671926 96.371405 
L 295.356503 97.220029 
L 296.041081 98.615196 
L 296.725772 99.236201 
L 297.410464 98.236143 
L 298.095041 98.659722 
L 298.665789 99.372674 
L 300.034944 99.782123 
L 300.605463 99.918805 
L 301.518385 100.007156 
L 302.317135 99.630542 
L 303.230057 99.474149 
L 303.914635 99.525012 
L 306.539115 100.305515 
L 307.451923 100.084178 
L 308.935364 100.306788 
L 309.619942 100.161778 
L 310.304633 100.32336 
L 311.103497 100.330049 
L 311.788075 100.217351 
L 312.358594 100.256432 
L 313.043171 100.417327 
L 315.097132 100.404768 
L 315.781824 100.201983 
L 316.352343 100.375639 
L 318.406304 100.509171 
L 319.090881 100.384859 
L 322.742456 100.401469 
L 323.312975 100.386313 
L 323.883608 100.507247 
L 325.366936 100.475607 
L 326.165685 100.340503 
L 328.790165 100.53537 
L 329.360685 100.419521 
L 330.615895 100.477181 
L 334.267242 100.528713 
L 335.864855 100.334376 
L 336.549433 100.534647 
L 338.032874 100.474092 
L 340.200893 100.516485 
L 342.368912 100.527443 
L 346.020487 100.485666 
L 347.389641 100.533464 
L 349.443602 100.570785 
L 350.812985 100.537064 
L 353.551523 100.544994 
L 393.147068 100.57676 
L 396.684241 100.570322 
L 400.678105 100.585131 
L 406.041123 100.564261 
L 409.350294 100.577081 
L 422.586752 100.577682 
L 431.943634 100.583475 
L 435.252805 100.577024 
L 447.005822 100.586188 
L 450.314993 100.580746 
L 457.275511 100.58492 
L 457.846259 100.527949 
L 460.014163 100.582394 
L 471.881466 100.586009 
L 481.694695 100.539068 
L 482.379272 99.511834 
L 483.520425 30.786464 
L 484.433347 11.647059 
L 485.118153 29.046903 
L 485.688444 59.39535 
L 486.258963 78.297366 
L 486.829482 86.785305 
L 487.514174 88.03714 
L 488.198865 45.470245 
L 488.883443 48.373203 
L 489.454076 62.656384 
L 490.138654 76.26521 
L 490.823345 82.064506 
L 491.507923 76.911067 
L 492.078556 36.095357 
L 492.763134 57.721861 
L 493.447825 82.946117 
L 494.018345 93.25255 
L 494.702922 95.394007 
L 495.615844 97.714899 
L 496.300422 94.403974 
L 496.985113 95.05846 
L 497.669691 96.437939 
L 498.240324 97.960294 
L 498.924902 98.568963 
L 499.723766 98.290661 
L 500.294285 98.773165 
L 500.978862 98.889693 
L 502.234073 99.985969 
L 504.173861 99.327031 
L 504.858553 99.828826 
L 505.657303 100.134367 
L 506.227822 100.098809 
L 507.026572 99.802572 
L 507.711264 99.82539 
L 508.395841 100.158464 
L 509.080533 100.276822 
L 510.449802 100.202446 
L 511.933243 100.398836 
L 513.188454 99.964038 
L 513.873031 100.285882 
L 514.557723 100.471919 
L 515.242415 100.345212 
L 515.926992 100.475616 
L 518.095011 100.439594 
L 518.779703 100.293366 
L 520.947722 100.543798 
L 522.431163 100.50981 
L 523.11574 100.494858 
L 523.686374 100.356887 
L 524.256893 100.566399 
L 525.740335 100.535954 
L 528.3647 100.56856 
L 532.700852 100.586711 
L 532.700852 100.586711 
" style="fill:none;stroke:#1f77b4;stroke-linecap:square;stroke-width:1.5;"/>
   </g>
   <g id="line2d_15">
    <path clip-path="url(#p98361816e0)" d="M 86.767376 105.035294 
L 86.767376 7.2 
" style="fill:none;stroke:#008000;stroke-dasharray:1.5,2.475;stroke-dashoffset:0;stroke-opacity:0.75;stroke-width:1.5;"/>
   </g>
   <g id="line2d_16">
    <path clip-path="url(#p98361816e0)" d="M 103.769352 105.035294 
L 103.769352 7.2 
" style="fill:none;stroke:#ff0000;stroke-dasharray:1.5,2.475;stroke-dashoffset:0;stroke-opacity:0.75;stroke-width:1.5;"/>
   </g>
   <g id="line2d_17">
    <path clip-path="url(#p98361816e0)" d="M 154.77551 105.035294 
L 154.77551 7.2 
" style="fill:none;stroke:#008000;stroke-dasharray:1.5,2.475;stroke-dashoffset:0;stroke-opacity:0.75;stroke-width:1.5;"/>
   </g>
   <g id="line2d_18">
    <path clip-path="url(#p98361816e0)" d="M 182.389693 105.035294 
L 182.389693 7.2 
" style="fill:none;stroke:#ff0000;stroke-dasharray:1.5,2.475;stroke-dashoffset:0;stroke-opacity:0.75;stroke-width:1.5;"/>
   </g>
   <g id="line2d_19">
    <path clip-path="url(#p98361816e0)" d="M 210.003761 105.035294 
L 210.003761 7.2 
" style="fill:none;stroke:#008000;stroke-dasharray:1.5,2.475;stroke-dashoffset:0;stroke-opacity:0.75;stroke-width:1.5;"/>
   </g>
   <g id="line2d_20">
    <path clip-path="url(#p98361816e0)" d="M 247.088884 105.035294 
L 247.088884 7.2 
" style="fill:none;stroke:#ff0000;stroke-dasharray:1.5,2.475;stroke-dashoffset:0;stroke-opacity:0.75;stroke-width:1.5;"/>
   </g>
   <g id="line2d_21">
    <path clip-path="url(#p98361816e0)" d="M 279.267335 105.035294 
L 279.267335 7.2 
" style="fill:none;stroke:#008000;stroke-dasharray:1.5,2.475;stroke-dashoffset:0;stroke-opacity:0.75;stroke-width:1.5;"/>
   </g>
   <g id="line2d_22">
    <path clip-path="url(#p98361816e0)" d="M 309.619942 105.035294 
L 309.619942 7.2 
" style="fill:none;stroke:#ff0000;stroke-dasharray:1.5,2.475;stroke-dashoffset:0;stroke-opacity:0.75;stroke-width:1.5;"/>
   </g>
   <g id="line2d_23">
    <path clip-path="url(#p98361816e0)" d="M 482.379272 105.035294 
L 482.379272 7.2 
" style="fill:none;stroke:#008000;stroke-dasharray:1.5,2.475;stroke-dashoffset:0;stroke-opacity:0.75;stroke-width:1.5;"/>
   </g>
   <g id="line2d_24">
    <path clip-path="url(#p98361816e0)" d="M 511.248666 105.035294 
L 511.248666 7.2 
" style="fill:none;stroke:#ff0000;stroke-dasharray:1.5,2.475;stroke-dashoffset:0;stroke-opacity:0.75;stroke-width:1.5;"/>
   </g>
   <g id="patch_3">
    <path d="M 53.328125 105.035294 
L 53.328125 7.2 
" style="fill:none;stroke:#000000;stroke-linecap:square;stroke-linejoin:miter;stroke-width:0.8;"/>
   </g>
   <g id="patch_4">
    <path d="M 555.528125 105.035294 
L 555.528125 7.2 
" style="fill:none;stroke:#000000;stroke-linecap:square;stroke-linejoin:miter;stroke-width:0.8;"/>
   </g>
   <g id="patch_5">
    <path d="M 53.328125 105.035294 
L 555.528125 105.035294 
" style="fill:none;stroke:#000000;stroke-linecap:square;stroke-linejoin:miter;stroke-width:0.8;"/>
   </g>
   <g id="patch_6">
    <path d="M 53.328125 7.2 
L 555.528125 7.2 
" style="fill:none;stroke:#000000;stroke-linecap:square;stroke-linejoin:miter;stroke-width:0.8;"/>
   </g>
  </g>
  <g id="axes_2">
   <g id="patch_7">
    <path d="M 53.328125 222.437647 
L 555.528125 222.437647 
L 555.528125 124.602353 
L 53.328125 124.602353 
z
" style="fill:#ffffff;"/>
   </g>
   <g id="matplotlib.axis_3">
    <g id="xtick_10">
     <g id="line2d_25">
      <g>
       <use style="stroke:#000000;stroke-width:0.8;" x="76.015308" xlink:href="#m888e01c7fe" y="222.437647"/>
      </g>
     </g>
    </g>
    <g id="xtick_11">
     <g id="line2d_26">
      <g>
       <use style="stroke:#000000;stroke-width:0.8;" x="133.101486" xlink:href="#m888e01c7fe" y="222.437647"/>
      </g>
     </g>
    </g>
    <g id="xtick_12">
     <g id="line2d_27">
      <g>
       <use style="stroke:#000000;stroke-width:0.8;" x="190.187665" xlink:href="#m888e01c7fe" y="222.437647"/>
      </g>
     </g>
    </g>
    <g id="xtick_13">
     <g id="line2d_28">
      <g>
       <use style="stroke:#000000;stroke-width:0.8;" x="247.273843" xlink:href="#m888e01c7fe" y="222.437647"/>
      </g>
     </g>
    </g>
    <g id="xtick_14">
     <g id="line2d_29">
      <g>
       <use style="stroke:#000000;stroke-width:0.8;" x="304.360021" xlink:href="#m888e01c7fe" y="222.437647"/>
      </g>
     </g>
    </g>
    <g id="xtick_15">
     <g id="line2d_30">
      <g>
       <use style="stroke:#000000;stroke-width:0.8;" x="361.446199" xlink:href="#m888e01c7fe" y="222.437647"/>
      </g>
     </g>
    </g>
    <g id="xtick_16">
     <g id="line2d_31">
      <g>
       <use style="stroke:#000000;stroke-width:0.8;" x="418.532378" xlink:href="#m888e01c7fe" y="222.437647"/>
      </g>
     </g>
    </g>
    <g id="xtick_17">
     <g id="line2d_32">
      <g>
       <use style="stroke:#000000;stroke-width:0.8;" x="475.618556" xlink:href="#m888e01c7fe" y="222.437647"/>
      </g>
     </g>
    </g>
    <g id="xtick_18">
     <g id="line2d_33">
      <g>
       <use style="stroke:#000000;stroke-width:0.8;" x="532.704734" xlink:href="#m888e01c7fe" y="222.437647"/>
      </g>
     </g>
    </g>
   </g>
   <g id="matplotlib.axis_4">
    <g id="ytick_5">
     <g id="line2d_34">
      <g>
       <use style="stroke:#000000;stroke-width:0.8;" x="53.328125" xlink:href="#m1d65efbde6" y="217.990592"/>
      </g>
     </g>
     <g id="text_5">
      <!-- 0 -->
      <g transform="translate(39.965625 221.789811)scale(0.1 -0.1)">
       <use xlink:href="#DejaVuSans-48"/>
      </g>
     </g>
    </g>
    <g id="ytick_6">
     <g id="line2d_35">
      <g>
       <use style="stroke:#000000;stroke-width:0.8;" x="53.328125" xlink:href="#m1d65efbde6" y="171.892123"/>
      </g>
     </g>
     <g id="text_6">
      <!-- 500 -->
      <g transform="translate(27.240625 175.691342)scale(0.1 -0.1)">
       <defs>
        <path d="M 10.796875 72.90625 
L 49.515625 72.90625 
L 49.515625 64.59375 
L 19.828125 64.59375 
L 19.828125 46.734375 
Q 21.96875 47.46875 24.109375 47.828125 
Q 26.265625 48.1875 28.421875 48.1875 
Q 40.625 48.1875 47.75 41.5 
Q 54.890625 34.8125 54.890625 23.390625 
Q 54.890625 11.625 47.5625 5.09375 
Q 40.234375 -1.421875 26.90625 -1.421875 
Q 22.3125 -1.421875 17.546875 -0.640625 
Q 12.796875 0.140625 7.71875 1.703125 
L 7.71875 11.625 
Q 12.109375 9.234375 16.796875 8.0625 
Q 21.484375 6.890625 26.703125 6.890625 
Q 35.15625 6.890625 40.078125 11.328125 
Q 45.015625 15.765625 45.015625 23.390625 
Q 45.015625 31 40.078125 35.4375 
Q 35.15625 39.890625 26.703125 39.890625 
Q 22.75 39.890625 18.8125 39.015625 
Q 14.890625 38.140625 10.796875 36.28125 
z
" id="DejaVuSans-53"/>
       </defs>
       <use xlink:href="#DejaVuSans-53"/>
       <use x="63.623047" xlink:href="#DejaVuSans-48"/>
       <use x="127.246094" xlink:href="#DejaVuSans-48"/>
      </g>
     </g>
    </g>
    <g id="ytick_7">
     <g id="line2d_36">
      <g>
       <use style="stroke:#000000;stroke-width:0.8;" x="53.328125" xlink:href="#m1d65efbde6" y="125.793654"/>
      </g>
     </g>
     <g id="text_7">
      <!-- 1000 -->
      <g transform="translate(20.878125 129.592873)scale(0.1 -0.1)">
       <use xlink:href="#DejaVuSans-49"/>
       <use x="63.623047" xlink:href="#DejaVuSans-48"/>
       <use x="127.246094" xlink:href="#DejaVuSans-48"/>
       <use x="190.869141" xlink:href="#DejaVuSans-48"/>
      </g>
     </g>
    </g>
    <g id="text_8">
     <!-- Squared velocity -->
     <g transform="translate(14.798438 215.42625)rotate(-90)scale(0.1 -0.1)">
      <defs>
       <path d="M 53.515625 70.515625 
L 53.515625 60.890625 
Q 47.90625 63.578125 42.921875 64.890625 
Q 37.9375 66.21875 33.296875 66.21875 
Q 25.25 66.21875 20.875 63.09375 
Q 16.5 59.96875 16.5 54.203125 
Q 16.5 49.359375 19.40625 46.890625 
Q 22.3125 44.4375 30.421875 42.921875 
L 36.375 41.703125 
Q 47.40625 39.59375 52.65625 34.296875 
Q 57.90625 29 57.90625 20.125 
Q 57.90625 9.515625 50.796875 4.046875 
Q 43.703125 -1.421875 29.984375 -1.421875 
Q 24.8125 -1.421875 18.96875 -0.25 
Q 13.140625 0.921875 6.890625 3.21875 
L 6.890625 13.375 
Q 12.890625 10.015625 18.65625 8.296875 
Q 24.421875 6.59375 29.984375 6.59375 
Q 38.421875 6.59375 43.015625 9.90625 
Q 47.609375 13.234375 47.609375 19.390625 
Q 47.609375 24.75 44.3125 27.78125 
Q 41.015625 30.8125 33.5 32.328125 
L 27.484375 33.5 
Q 16.453125 35.6875 11.515625 40.375 
Q 6.59375 45.0625 6.59375 53.421875 
Q 6.59375 63.09375 13.40625 68.65625 
Q 20.21875 74.21875 32.171875 74.21875 
Q 37.3125 74.21875 42.625 73.28125 
Q 47.953125 72.359375 53.515625 70.515625 
z
" id="DejaVuSans-83"/>
       <path d="M 14.796875 27.296875 
Q 14.796875 17.390625 18.875 11.75 
Q 22.953125 6.109375 30.078125 6.109375 
Q 37.203125 6.109375 41.296875 11.75 
Q 45.40625 17.390625 45.40625 27.296875 
Q 45.40625 37.203125 41.296875 42.84375 
Q 37.203125 48.484375 30.078125 48.484375 
Q 22.953125 48.484375 18.875 42.84375 
Q 14.796875 37.203125 14.796875 27.296875 
z
M 45.40625 8.203125 
Q 42.578125 3.328125 38.25 0.953125 
Q 33.9375 -1.421875 27.875 -1.421875 
Q 17.96875 -1.421875 11.734375 6.484375 
Q 5.515625 14.40625 5.515625 27.296875 
Q 5.515625 40.1875 11.734375 48.09375 
Q 17.96875 56 27.875 56 
Q 33.9375 56 38.25 53.625 
Q 42.578125 51.265625 45.40625 46.390625 
L 45.40625 54.6875 
L 54.390625 54.6875 
L 54.390625 -20.796875 
L 45.40625 -20.796875 
z
" id="DejaVuSans-113"/>
       <path d="M 8.5 21.578125 
L 8.5 54.6875 
L 17.484375 54.6875 
L 17.484375 21.921875 
Q 17.484375 14.15625 20.5 10.265625 
Q 23.53125 6.390625 29.59375 6.390625 
Q 36.859375 6.390625 41.078125 11.03125 
Q 45.3125 15.671875 45.3125 23.6875 
L 45.3125 54.6875 
L 54.296875 54.6875 
L 54.296875 0 
L 45.3125 0 
L 45.3125 8.40625 
Q 42.046875 3.421875 37.71875 1 
Q 33.40625 -1.421875 27.6875 -1.421875 
Q 18.265625 -1.421875 13.375 4.4375 
Q 8.5 10.296875 8.5 21.578125 
z
M 31.109375 56 
z
" id="DejaVuSans-117"/>
       <path d="M 34.28125 27.484375 
Q 23.390625 27.484375 19.1875 25 
Q 14.984375 22.515625 14.984375 16.5 
Q 14.984375 11.71875 18.140625 8.90625 
Q 21.296875 6.109375 26.703125 6.109375 
Q 34.1875 6.109375 38.703125 11.40625 
Q 43.21875 16.703125 43.21875 25.484375 
L 43.21875 27.484375 
z
M 52.203125 31.203125 
L 52.203125 0 
L 43.21875 0 
L 43.21875 8.296875 
Q 40.140625 3.328125 35.546875 0.953125 
Q 30.953125 -1.421875 24.3125 -1.421875 
Q 15.921875 -1.421875 10.953125 3.296875 
Q 6 8.015625 6 15.921875 
Q 6 25.140625 12.171875 29.828125 
Q 18.359375 34.515625 30.609375 34.515625 
L 43.21875 34.515625 
L 43.21875 35.40625 
Q 43.21875 41.609375 39.140625 45 
Q 35.0625 48.390625 27.6875 48.390625 
Q 23 48.390625 18.546875 47.265625 
Q 14.109375 46.140625 10.015625 43.890625 
L 10.015625 52.203125 
Q 14.9375 54.109375 19.578125 55.046875 
Q 24.21875 56 28.609375 56 
Q 40.484375 56 46.34375 49.84375 
Q 52.203125 43.703125 52.203125 31.203125 
z
" id="DejaVuSans-97"/>
       <path d="M 41.109375 46.296875 
Q 39.59375 47.171875 37.8125 47.578125 
Q 36.03125 48 33.890625 48 
Q 26.265625 48 22.1875 43.046875 
Q 18.109375 38.09375 18.109375 28.8125 
L 18.109375 0 
L 9.078125 0 
L 9.078125 54.6875 
L 18.109375 54.6875 
L 18.109375 46.1875 
Q 20.953125 51.171875 25.484375 53.578125 
Q 30.03125 56 36.53125 56 
Q 37.453125 56 38.578125 55.875 
Q 39.703125 55.765625 41.0625 55.515625 
z
" id="DejaVuSans-114"/>
       <path d="M 56.203125 29.59375 
L 56.203125 25.203125 
L 14.890625 25.203125 
Q 15.484375 15.921875 20.484375 11.0625 
Q 25.484375 6.203125 34.421875 6.203125 
Q 39.59375 6.203125 44.453125 7.46875 
Q 49.3125 8.734375 54.109375 11.28125 
L 54.109375 2.78125 
Q 49.265625 0.734375 44.1875 -0.34375 
Q 39.109375 -1.421875 33.890625 -1.421875 
Q 20.796875 -1.421875 13.15625 6.1875 
Q 5.515625 13.8125 5.515625 26.8125 
Q 5.515625 40.234375 12.765625 48.109375 
Q 20.015625 56 32.328125 56 
Q 43.359375 56 49.78125 48.890625 
Q 56.203125 41.796875 56.203125 29.59375 
z
M 47.21875 32.234375 
Q 47.125 39.59375 43.09375 43.984375 
Q 39.0625 48.390625 32.421875 48.390625 
Q 24.90625 48.390625 20.390625 44.140625 
Q 15.875 39.890625 15.1875 32.171875 
z
" id="DejaVuSans-101"/>
       <path d="M 45.40625 46.390625 
L 45.40625 75.984375 
L 54.390625 75.984375 
L 54.390625 0 
L 45.40625 0 
L 45.40625 8.203125 
Q 42.578125 3.328125 38.25 0.953125 
Q 33.9375 -1.421875 27.875 -1.421875 
Q 17.96875 -1.421875 11.734375 6.484375 
Q 5.515625 14.40625 5.515625 27.296875 
Q 5.515625 40.1875 11.734375 48.09375 
Q 17.96875 56 27.875 56 
Q 33.9375 56 38.25 53.625 
Q 42.578125 51.265625 45.40625 46.390625 
z
M 14.796875 27.296875 
Q 14.796875 17.390625 18.875 11.75 
Q 22.953125 6.109375 30.078125 6.109375 
Q 37.203125 6.109375 41.296875 11.75 
Q 45.40625 17.390625 45.40625 27.296875 
Q 45.40625 37.203125 41.296875 42.84375 
Q 37.203125 48.484375 30.078125 48.484375 
Q 22.953125 48.484375 18.875 42.84375 
Q 14.796875 37.203125 14.796875 27.296875 
z
" id="DejaVuSans-100"/>
       <path id="DejaVuSans-32"/>
       <path d="M 2.984375 54.6875 
L 12.5 54.6875 
L 29.59375 8.796875 
L 46.6875 54.6875 
L 56.203125 54.6875 
L 35.6875 0 
L 23.484375 0 
z
" id="DejaVuSans-118"/>
       <path d="M 9.421875 75.984375 
L 18.40625 75.984375 
L 18.40625 0 
L 9.421875 0 
z
" id="DejaVuSans-108"/>
       <path d="M 30.609375 48.390625 
Q 23.390625 48.390625 19.1875 42.75 
Q 14.984375 37.109375 14.984375 27.296875 
Q 14.984375 17.484375 19.15625 11.84375 
Q 23.34375 6.203125 30.609375 6.203125 
Q 37.796875 6.203125 41.984375 11.859375 
Q 46.1875 17.53125 46.1875 27.296875 
Q 46.1875 37.015625 41.984375 42.703125 
Q 37.796875 48.390625 30.609375 48.390625 
z
M 30.609375 56 
Q 42.328125 56 49.015625 48.375 
Q 55.71875 40.765625 55.71875 27.296875 
Q 55.71875 13.875 49.015625 6.21875 
Q 42.328125 -1.421875 30.609375 -1.421875 
Q 18.84375 -1.421875 12.171875 6.21875 
Q 5.515625 13.875 5.515625 27.296875 
Q 5.515625 40.765625 12.171875 48.375 
Q 18.84375 56 30.609375 56 
z
" id="DejaVuSans-111"/>
       <path d="M 48.78125 52.59375 
L 48.78125 44.1875 
Q 44.96875 46.296875 41.140625 47.34375 
Q 37.3125 48.390625 33.40625 48.390625 
Q 24.65625 48.390625 19.8125 42.84375 
Q 14.984375 37.3125 14.984375 27.296875 
Q 14.984375 17.28125 19.8125 11.734375 
Q 24.65625 6.203125 33.40625 6.203125 
Q 37.3125 6.203125 41.140625 7.25 
Q 44.96875 8.296875 48.78125 10.40625 
L 48.78125 2.09375 
Q 45.015625 0.34375 40.984375 -0.53125 
Q 36.96875 -1.421875 32.421875 -1.421875 
Q 20.0625 -1.421875 12.78125 6.34375 
Q 5.515625 14.109375 5.515625 27.296875 
Q 5.515625 40.671875 12.859375 48.328125 
Q 20.21875 56 33.015625 56 
Q 37.15625 56 41.109375 55.140625 
Q 45.0625 54.296875 48.78125 52.59375 
z
" id="DejaVuSans-99"/>
       <path d="M 9.421875 54.6875 
L 18.40625 54.6875 
L 18.40625 0 
L 9.421875 0 
z
M 9.421875 75.984375 
L 18.40625 75.984375 
L 18.40625 64.59375 
L 9.421875 64.59375 
z
" id="DejaVuSans-105"/>
       <path d="M 18.3125 70.21875 
L 18.3125 54.6875 
L 36.8125 54.6875 
L 36.8125 47.703125 
L 18.3125 47.703125 
L 18.3125 18.015625 
Q 18.3125 11.328125 20.140625 9.421875 
Q 21.96875 7.515625 27.59375 7.515625 
L 36.8125 7.515625 
L 36.8125 0 
L 27.59375 0 
Q 17.1875 0 13.234375 3.875 
Q 9.28125 7.765625 9.28125 18.015625 
L 9.28125 47.703125 
L 2.6875 47.703125 
L 2.6875 54.6875 
L 9.28125 54.6875 
L 9.28125 70.21875 
z
" id="DejaVuSans-116"/>
       <path d="M 32.171875 -5.078125 
Q 28.375 -14.84375 24.75 -17.8125 
Q 21.140625 -20.796875 15.09375 -20.796875 
L 7.90625 -20.796875 
L 7.90625 -13.28125 
L 13.1875 -13.28125 
Q 16.890625 -13.28125 18.9375 -11.515625 
Q 21 -9.765625 23.484375 -3.21875 
L 25.09375 0.875 
L 2.984375 54.6875 
L 12.5 54.6875 
L 29.59375 11.921875 
L 46.6875 54.6875 
L 56.203125 54.6875 
z
" id="DejaVuSans-121"/>
      </defs>
      <use xlink:href="#DejaVuSans-83"/>
      <use x="63.476562" xlink:href="#DejaVuSans-113"/>
      <use x="126.953125" xlink:href="#DejaVuSans-117"/>
      <use x="190.332031" xlink:href="#DejaVuSans-97"/>
      <use x="251.611328" xlink:href="#DejaVuSans-114"/>
      <use x="290.474609" xlink:href="#DejaVuSans-101"/>
      <use x="351.998047" xlink:href="#DejaVuSans-100"/>
      <use x="415.474609" xlink:href="#DejaVuSans-32"/>
      <use x="447.261719" xlink:href="#DejaVuSans-118"/>
      <use x="506.441406" xlink:href="#DejaVuSans-101"/>
      <use x="567.964844" xlink:href="#DejaVuSans-108"/>
      <use x="595.748047" xlink:href="#DejaVuSans-111"/>
      <use x="656.929688" xlink:href="#DejaVuSans-99"/>
      <use x="711.910156" xlink:href="#DejaVuSans-105"/>
      <use x="739.693359" xlink:href="#DejaVuSans-116"/>
      <use x="778.902344" xlink:href="#DejaVuSans-121"/>
     </g>
    </g>
   </g>
   <g id="line2d_37">
    <path clip-path="url(#p2608417c99)" d="M 76.155398 217.962394 
L 93.271547 217.986494 
L 111.756964 217.987541 
L 151.238336 217.982623 
L 152.037086 212.544246 
L 153.406241 191.121497 
L 154.090932 189.226089 
L 154.77551 192.71271 
L 155.460316 195.236926 
L 156.145007 194.370065 
L 156.943757 199.956543 
L 157.628335 195.718171 
L 158.313026 195.954618 
L 158.997604 199.174838 
L 159.682181 201.018636 
L 160.937392 210.911333 
L 161.622084 201.777576 
L 162.306775 202.509074 
L 162.991353 205.478131 
L 163.676044 207.278799 
L 164.360622 210.11775 
L 165.045313 212.332031 
L 165.729891 210.923042 
L 167.213675 214.842622 
L 167.898024 215.014646 
L 168.468543 215.777518 
L 169.039177 216.773768 
L 169.723754 217.183242 
L 170.52239 217.467687 
L 171.321254 217.495498 
L 172.005831 217.183481 
L 172.690523 217.379832 
L 174.059792 217.623089 
L 174.744483 217.474547 
L 175.429175 217.670033 
L 177.483136 217.694891 
L 178.167713 217.638804 
L 179.651155 217.819758 
L 180.335846 217.852292 
L 181.705115 217.693061 
L 182.389693 217.824188 
L 188.323344 217.906252 
L 189.008036 217.836115 
L 190.491363 217.936119 
L 195.398034 217.931808 
L 200.190647 217.957318 
L 202.130436 217.975489 
L 203.956166 217.958115 
L 210.003761 217.971743 
L 212.057836 217.955822 
L 216.393874 217.963321 
L 224.723775 217.984575 
L 247.088884 217.988568 
L 473.250735 217.990333 
L 473.935427 217.828914 
L 474.620119 214.81532 
L 475.418754 205.617992 
L 476.103332 192.99865 
L 476.673851 129.049412 
L 477.472715 130.85935 
L 478.157292 166.239152 
L 478.841984 194.205754 
L 479.640734 206.693987 
L 480.211367 202.058367 
L 480.895945 203.691357 
L 481.694695 208.006347 
L 482.379272 206.884996 
L 482.95002 201.49873 
L 483.520425 205.811297 
L 484.433347 205.706289 
L 485.688444 203.812028 
L 486.258963 200.525 
L 486.829482 199.183806 
L 487.514174 201.419203 
L 488.198865 194.741863 
L 488.883443 200.651542 
L 489.454076 207.505351 
L 490.138654 211.838287 
L 490.823345 213.864665 
L 491.507923 215.076181 
L 492.078556 215.546239 
L 492.763134 216.591392 
L 493.447825 217.189674 
L 494.018345 217.467808 
L 495.615844 217.746255 
L 496.985113 217.722283 
L 498.924902 217.888693 
L 499.723766 217.729641 
L 501.663554 217.980023 
L 502.918765 217.902191 
L 504.173861 217.90451 
L 506.227822 217.959068 
L 511.248666 217.94739 
L 513.188454 217.95513 
L 526.425026 217.969701 
L 532.700852 217.989402 
L 532.700852 217.989402 
" style="fill:none;stroke:#1f77b4;stroke-linecap:square;stroke-width:1.5;"/>
   </g>
   <g id="line2d_38">
    <path clip-path="url(#p2608417c99)" d="M 152.037086 222.437647 
L 152.037086 124.602353 
" style="fill:none;stroke:#008000;stroke-dasharray:1.5,2.475;stroke-dashoffset:0;stroke-opacity:0.75;stroke-width:1.5;"/>
   </g>
   <g id="line2d_39">
    <path clip-path="url(#p2608417c99)" d="M 183.074384 222.437647 
L 183.074384 124.602353 
" style="fill:none;stroke:#ff0000;stroke-dasharray:1.5,2.475;stroke-dashoffset:0;stroke-opacity:0.75;stroke-width:1.5;"/>
   </g>
   <g id="line2d_40">
    <path clip-path="url(#p2608417c99)" d="M 473.935427 222.437647 
L 473.935427 124.602353 
" style="fill:none;stroke:#008000;stroke-dasharray:1.5,2.475;stroke-dashoffset:0;stroke-opacity:0.75;stroke-width:1.5;"/>
   </g>
   <g id="line2d_41">
    <path clip-path="url(#p2608417c99)" d="M 500.978862 222.437647 
L 500.978862 124.602353 
" style="fill:none;stroke:#ff0000;stroke-dasharray:1.5,2.475;stroke-dashoffset:0;stroke-opacity:0.75;stroke-width:1.5;"/>
   </g>
   <g id="patch_8">
    <path d="M 53.328125 222.437647 
L 53.328125 124.602353 
" style="fill:none;stroke:#000000;stroke-linecap:square;stroke-linejoin:miter;stroke-width:0.8;"/>
   </g>
   <g id="patch_9">
    <path d="M 555.528125 222.437647 
L 555.528125 124.602353 
" style="fill:none;stroke:#000000;stroke-linecap:square;stroke-linejoin:miter;stroke-width:0.8;"/>
   </g>
   <g id="patch_10">
    <path d="M 53.328125 222.437647 
L 555.528125 222.437647 
" style="fill:none;stroke:#000000;stroke-linecap:square;stroke-linejoin:miter;stroke-width:0.8;"/>
   </g>
   <g id="patch_11">
    <path d="M 53.328125 124.602353 
L 555.528125 124.602353 
" style="fill:none;stroke:#000000;stroke-linecap:square;stroke-linejoin:miter;stroke-width:0.8;"/>
   </g>
  </g>
  <g id="axes_3">
   <g id="patch_12">
    <path d="M 53.328125 339.84 
L 555.528125 339.84 
L 555.528125 242.004706 
L 53.328125 242.004706 
z
" style="fill:#ffffff;"/>
   </g>
   <g id="matplotlib.axis_5">
    <g id="xtick_19">
     <g id="line2d_42">
      <g>
       <use style="stroke:#000000;stroke-width:0.8;" x="76.015308" xlink:href="#m888e01c7fe" y="339.84"/>
      </g>
     </g>
     <g id="text_9">
      <!-- 0.0 -->
      <g transform="translate(68.063746 354.438437)scale(0.1 -0.1)">
       <defs>
        <path d="M 10.6875 12.40625 
L 21 12.40625 
L 21 0 
L 10.6875 0 
z
" id="DejaVuSans-46"/>
       </defs>
       <use xlink:href="#DejaVuSans-48"/>
       <use x="63.623047" xlink:href="#DejaVuSans-46"/>
       <use x="95.410156" xlink:href="#DejaVuSans-48"/>
      </g>
     </g>
    </g>
    <g id="xtick_20">
     <g id="line2d_43">
      <g>
       <use style="stroke:#000000;stroke-width:0.8;" x="133.101486" xlink:href="#m888e01c7fe" y="339.84"/>
      </g>
     </g>
     <g id="text_10">
      <!-- 0.5 -->
      <g transform="translate(125.149924 354.438437)scale(0.1 -0.1)">
       <use xlink:href="#DejaVuSans-48"/>
       <use x="63.623047" xlink:href="#DejaVuSans-46"/>
       <use x="95.410156" xlink:href="#DejaVuSans-53"/>
      </g>
     </g>
    </g>
    <g id="xtick_21">
     <g id="line2d_44">
      <g>
       <use style="stroke:#000000;stroke-width:0.8;" x="190.187665" xlink:href="#m888e01c7fe" y="339.84"/>
      </g>
     </g>
     <g id="text_11">
      <!-- 1.0 -->
      <g transform="translate(182.236102 354.438437)scale(0.1 -0.1)">
       <use xlink:href="#DejaVuSans-49"/>
       <use x="63.623047" xlink:href="#DejaVuSans-46"/>
       <use x="95.410156" xlink:href="#DejaVuSans-48"/>
      </g>
     </g>
    </g>
    <g id="xtick_22">
     <g id="line2d_45">
      <g>
       <use style="stroke:#000000;stroke-width:0.8;" x="247.273843" xlink:href="#m888e01c7fe" y="339.84"/>
      </g>
     </g>
     <g id="text_12">
      <!-- 1.5 -->
      <g transform="translate(239.32228 354.438437)scale(0.1 -0.1)">
       <use xlink:href="#DejaVuSans-49"/>
       <use x="63.623047" xlink:href="#DejaVuSans-46"/>
       <use x="95.410156" xlink:href="#DejaVuSans-53"/>
      </g>
     </g>
    </g>
    <g id="xtick_23">
     <g id="line2d_46">
      <g>
       <use style="stroke:#000000;stroke-width:0.8;" x="304.360021" xlink:href="#m888e01c7fe" y="339.84"/>
      </g>
     </g>
     <g id="text_13">
      <!-- 2.0 -->
      <g transform="translate(296.408459 354.438437)scale(0.1 -0.1)">
       <use xlink:href="#DejaVuSans-50"/>
       <use x="63.623047" xlink:href="#DejaVuSans-46"/>
       <use x="95.410156" xlink:href="#DejaVuSans-48"/>
      </g>
     </g>
    </g>
    <g id="xtick_24">
     <g id="line2d_47">
      <g>
       <use style="stroke:#000000;stroke-width:0.8;" x="361.446199" xlink:href="#m888e01c7fe" y="339.84"/>
      </g>
     </g>
     <g id="text_14">
      <!-- 2.5 -->
      <g transform="translate(353.494637 354.438437)scale(0.1 -0.1)">
       <use xlink:href="#DejaVuSans-50"/>
       <use x="63.623047" xlink:href="#DejaVuSans-46"/>
       <use x="95.410156" xlink:href="#DejaVuSans-53"/>
      </g>
     </g>
    </g>
    <g id="xtick_25">
     <g id="line2d_48">
      <g>
       <use style="stroke:#000000;stroke-width:0.8;" x="418.532378" xlink:href="#m888e01c7fe" y="339.84"/>
      </g>
     </g>
     <g id="text_15">
      <!-- 3.0 -->
      <g transform="translate(410.580815 354.438437)scale(0.1 -0.1)">
       <use xlink:href="#DejaVuSans-51"/>
       <use x="63.623047" xlink:href="#DejaVuSans-46"/>
       <use x="95.410156" xlink:href="#DejaVuSans-48"/>
      </g>
     </g>
    </g>
    <g id="xtick_26">
     <g id="line2d_49">
      <g>
       <use style="stroke:#000000;stroke-width:0.8;" x="475.618556" xlink:href="#m888e01c7fe" y="339.84"/>
      </g>
     </g>
     <g id="text_16">
      <!-- 3.5 -->
      <g transform="translate(467.666993 354.438437)scale(0.1 -0.1)">
       <use xlink:href="#DejaVuSans-51"/>
       <use x="63.623047" xlink:href="#DejaVuSans-46"/>
       <use x="95.410156" xlink:href="#DejaVuSans-53"/>
      </g>
     </g>
    </g>
    <g id="xtick_27">
     <g id="line2d_50">
      <g>
       <use style="stroke:#000000;stroke-width:0.8;" x="532.704734" xlink:href="#m888e01c7fe" y="339.84"/>
      </g>
     </g>
     <g id="text_17">
      <!-- 4.0 -->
      <g transform="translate(524.753172 354.438437)scale(0.1 -0.1)">
       <defs>
        <path d="M 37.796875 64.3125 
L 12.890625 25.390625 
L 37.796875 25.390625 
z
M 35.203125 72.90625 
L 47.609375 72.90625 
L 47.609375 25.390625 
L 58.015625 25.390625 
L 58.015625 17.1875 
L 47.609375 17.1875 
L 47.609375 0 
L 37.796875 0 
L 37.796875 17.1875 
L 4.890625 17.1875 
L 4.890625 26.703125 
z
" id="DejaVuSans-52"/>
       </defs>
       <use xlink:href="#DejaVuSans-52"/>
       <use x="63.623047" xlink:href="#DejaVuSans-46"/>
       <use x="95.410156" xlink:href="#DejaVuSans-48"/>
      </g>
     </g>
    </g>
    <g id="text_18">
     <!-- Time [s.] -->
     <g transform="translate(282.510156 368.116562)scale(0.1 -0.1)">
      <defs>
       <path d="M -0.296875 72.90625 
L 61.375 72.90625 
L 61.375 64.59375 
L 35.5 64.59375 
L 35.5 0 
L 25.59375 0 
L 25.59375 64.59375 
L -0.296875 64.59375 
z
" id="DejaVuSans-84"/>
       <path d="M 52 44.1875 
Q 55.375 50.25 60.0625 53.125 
Q 64.75 56 71.09375 56 
Q 79.640625 56 84.28125 50.015625 
Q 88.921875 44.046875 88.921875 33.015625 
L 88.921875 0 
L 79.890625 0 
L 79.890625 32.71875 
Q 79.890625 40.578125 77.09375 44.375 
Q 74.3125 48.1875 68.609375 48.1875 
Q 61.625 48.1875 57.5625 43.546875 
Q 53.515625 38.921875 53.515625 30.90625 
L 53.515625 0 
L 44.484375 0 
L 44.484375 32.71875 
Q 44.484375 40.625 41.703125 44.40625 
Q 38.921875 48.1875 33.109375 48.1875 
Q 26.21875 48.1875 22.15625 43.53125 
Q 18.109375 38.875 18.109375 30.90625 
L 18.109375 0 
L 9.078125 0 
L 9.078125 54.6875 
L 18.109375 54.6875 
L 18.109375 46.1875 
Q 21.1875 51.21875 25.484375 53.609375 
Q 29.78125 56 35.6875 56 
Q 41.65625 56 45.828125 52.96875 
Q 50 49.953125 52 44.1875 
z
" id="DejaVuSans-109"/>
       <path d="M 8.59375 75.984375 
L 29.296875 75.984375 
L 29.296875 69 
L 17.578125 69 
L 17.578125 -6.203125 
L 29.296875 -6.203125 
L 29.296875 -13.1875 
L 8.59375 -13.1875 
z
" id="DejaVuSans-91"/>
       <path d="M 44.28125 53.078125 
L 44.28125 44.578125 
Q 40.484375 46.53125 36.375 47.5 
Q 32.28125 48.484375 27.875 48.484375 
Q 21.1875 48.484375 17.84375 46.4375 
Q 14.5 44.390625 14.5 40.28125 
Q 14.5 37.15625 16.890625 35.375 
Q 19.28125 33.59375 26.515625 31.984375 
L 29.59375 31.296875 
Q 39.15625 29.25 43.1875 25.515625 
Q 47.21875 21.78125 47.21875 15.09375 
Q 47.21875 7.46875 41.1875 3.015625 
Q 35.15625 -1.421875 24.609375 -1.421875 
Q 20.21875 -1.421875 15.453125 -0.5625 
Q 10.6875 0.296875 5.421875 2 
L 5.421875 11.28125 
Q 10.40625 8.6875 15.234375 7.390625 
Q 20.0625 6.109375 24.8125 6.109375 
Q 31.15625 6.109375 34.5625 8.28125 
Q 37.984375 10.453125 37.984375 14.40625 
Q 37.984375 18.0625 35.515625 20.015625 
Q 33.0625 21.96875 24.703125 23.78125 
L 21.578125 24.515625 
Q 13.234375 26.265625 9.515625 29.90625 
Q 5.8125 33.546875 5.8125 39.890625 
Q 5.8125 47.609375 11.28125 51.796875 
Q 16.75 56 26.8125 56 
Q 31.78125 56 36.171875 55.265625 
Q 40.578125 54.546875 44.28125 53.078125 
z
" id="DejaVuSans-115"/>
       <path d="M 30.421875 75.984375 
L 30.421875 -13.1875 
L 9.71875 -13.1875 
L 9.71875 -6.203125 
L 21.390625 -6.203125 
L 21.390625 69 
L 9.71875 69 
L 9.71875 75.984375 
z
" id="DejaVuSans-93"/>
      </defs>
      <use xlink:href="#DejaVuSans-84"/>
      <use x="57.958984" xlink:href="#DejaVuSans-105"/>
      <use x="85.742188" xlink:href="#DejaVuSans-109"/>
      <use x="183.154297" xlink:href="#DejaVuSans-101"/>
      <use x="244.677734" xlink:href="#DejaVuSans-32"/>
      <use x="276.464844" xlink:href="#DejaVuSans-91"/>
      <use x="315.478516" xlink:href="#DejaVuSans-115"/>
      <use x="367.578125" xlink:href="#DejaVuSans-46"/>
      <use x="399.365234" xlink:href="#DejaVuSans-93"/>
     </g>
    </g>
   </g>
   <g id="matplotlib.axis_6">
    <g id="ytick_8">
     <g id="line2d_51">
      <g>
       <use style="stroke:#000000;stroke-width:0.8;" x="53.328125" xlink:href="#m1d65efbde6" y="335.392972"/>
      </g>
     </g>
     <g id="text_19">
      <!-- 0 -->
      <g transform="translate(39.965625 339.192191)scale(0.1 -0.1)">
       <use xlink:href="#DejaVuSans-48"/>
      </g>
     </g>
    </g>
    <g id="ytick_9">
     <g id="line2d_52">
      <g>
       <use style="stroke:#000000;stroke-width:0.8;" x="53.328125" xlink:href="#m1d65efbde6" y="310.421096"/>
      </g>
     </g>
     <g id="text_20">
      <!-- 250 -->
      <g transform="translate(27.240625 314.220315)scale(0.1 -0.1)">
       <use xlink:href="#DejaVuSans-50"/>
       <use x="63.623047" xlink:href="#DejaVuSans-53"/>
       <use x="127.246094" xlink:href="#DejaVuSans-48"/>
      </g>
     </g>
    </g>
    <g id="ytick_10">
     <g id="line2d_53">
      <g>
       <use style="stroke:#000000;stroke-width:0.8;" x="53.328125" xlink:href="#m1d65efbde6" y="285.44922"/>
      </g>
     </g>
     <g id="text_21">
      <!-- 500 -->
      <g transform="translate(27.240625 289.248439)scale(0.1 -0.1)">
       <use xlink:href="#DejaVuSans-53"/>
       <use x="63.623047" xlink:href="#DejaVuSans-48"/>
       <use x="127.246094" xlink:href="#DejaVuSans-48"/>
      </g>
     </g>
    </g>
    <g id="ytick_11">
     <g id="line2d_54">
      <g>
       <use style="stroke:#000000;stroke-width:0.8;" x="53.328125" xlink:href="#m1d65efbde6" y="260.477344"/>
      </g>
     </g>
     <g id="text_22">
      <!-- 750 -->
      <g transform="translate(27.240625 264.276563)scale(0.1 -0.1)">
       <defs>
        <path d="M 8.203125 72.90625 
L 55.078125 72.90625 
L 55.078125 68.703125 
L 28.609375 0 
L 18.3125 0 
L 43.21875 64.59375 
L 8.203125 64.59375 
z
" id="DejaVuSans-55"/>
       </defs>
       <use xlink:href="#DejaVuSans-55"/>
       <use x="63.623047" xlink:href="#DejaVuSans-53"/>
       <use x="127.246094" xlink:href="#DejaVuSans-48"/>
      </g>
     </g>
    </g>
   </g>
   <g id="line2d_55">
    <path clip-path="url(#p69b4241e3f)" d="M 76.155398 335.392646 
L 92.472797 335.384433 
L 93.271547 335.186932 
L 93.956124 332.120873 
L 94.640816 328.237774 
L 95.439565 320.86557 
L 96.124143 256.454554 
L 96.808834 246.451765 
L 97.607584 273.255022 
L 98.292276 283.115994 
L 99.091026 300.648328 
L 99.775603 312.396109 
L 100.460295 317.096782 
L 101.144986 295.496043 
L 101.715392 301.817016 
L 102.400083 313.717421 
L 102.970717 316.067229 
L 103.769352 307.721477 
L 104.454044 296.742981 
L 105.138735 255.752407 
L 105.937485 277.513647 
L 106.508005 303.528861 
L 107.078524 311.224854 
L 107.649043 311.523999 
L 108.447793 314.318078 
L 109.018426 297.157698 
L 109.703004 303.290391 
L 110.273523 315.329402 
L 110.844156 321.733141 
L 111.756964 327.25071 
L 112.441542 329.662545 
L 113.126234 327.982636 
L 113.810811 329.422991 
L 114.495503 331.391332 
L 115.180194 332.386695 
L 115.864886 332.659495 
L 116.663636 332.156446 
L 117.462385 332.782192 
L 118.032905 333.371191 
L 118.717482 333.917101 
L 119.402288 332.827904 
L 120.086751 333.500806 
L 120.65727 333.797124 
L 121.342076 334.418898 
L 123.396037 334.78819 
L 124.080614 333.994318 
L 126.020403 334.841542 
L 126.705094 334.67759 
L 127.503958 334.198361 
L 128.873113 334.575129 
L 129.443633 334.829704 
L 130.128324 334.791429 
L 130.698958 334.609266 
L 131.497593 334.582873 
L 132.068112 334.868885 
L 134.122073 335.007892 
L 134.692707 334.764807 
L 135.491342 334.610448 
L 136.061976 334.981914 
L 138.001764 335.110678 
L 138.686456 335.039777 
L 139.256975 334.770846 
L 139.941667 334.754455 
L 140.626244 335.154263 
L 141.196877 335.200357 
L 143.593013 335.085845 
L 144.163646 335.206973 
L 144.848224 335.174949 
L 145.647088 335.252846 
L 146.331665 334.796861 
L 147.814992 335.248027 
L 148.385511 334.903162 
L 151.238336 335.271736 
L 152.037086 335.098485 
L 153.406241 335.215182 
L 156.943757 335.218557 
L 157.628335 335.058674 
L 158.313026 335.258148 
L 167.213675 335.248752 
L 167.898024 335.157424 
L 171.321254 335.3612 
L 172.005831 335.201326 
L 175.429175 335.334456 
L 176.684386 335.303067 
L 178.966463 335.286169 
L 179.651155 335.381173 
L 181.020424 335.154485 
L 181.705115 335.255993 
L 182.389693 335.244655 
L 183.074384 335.389868 
L 184.329595 335.306254 
L 188.323344 335.352442 
L 190.491363 335.352097 
L 192.659382 335.383482 
L 193.344074 334.959893 
L 194.142823 334.007644 
L 194.827515 327.979239 
L 195.398034 325.460802 
L 196.082612 329.253297 
L 196.881476 328.359546 
L 197.451995 325.126643 
L 198.136687 318.667969 
L 198.935436 318.914372 
L 199.620014 321.51723 
L 200.190647 322.550703 
L 201.445744 312.95452 
L 202.130436 287.77546 
L 202.815013 297.830852 
L 203.385532 310.532785 
L 203.956166 306.114185 
L 204.640743 297.339075 
L 205.325435 308.598084 
L 206.010012 315.038694 
L 206.694704 286.39711 
L 207.379396 288.478885 
L 208.063973 285.911319 
L 209.319298 307.06716 
L 210.003761 313.393048 
L 210.688453 305.634903 
L 211.373145 310.795169 
L 212.057836 318.742823 
L 212.856586 323.255636 
L 213.65545 321.84274 
L 215.024605 329.665518 
L 215.709182 331.562104 
L 216.393874 329.555933 
L 217.078451 330.755229 
L 217.877315 331.628082 
L 219.246699 333.454353 
L 219.931276 332.087588 
L 221.300431 333.365154 
L 221.871065 333.605779 
L 222.555642 334.202412 
L 223.240334 333.466309 
L 224.039083 333.457277 
L 225.408467 334.28332 
L 226.093044 333.829736 
L 228.831582 334.594938 
L 229.516274 334.683296 
L 230.200851 334.111953 
L 230.885543 334.29909 
L 231.684293 334.068682 
L 233.053676 334.549422 
L 233.852426 334.514264 
L 234.537003 334.919176 
L 235.221581 334.97303 
L 235.906386 334.517413 
L 236.590964 334.810153 
L 240.927116 334.944177 
L 241.611693 334.659871 
L 243.551482 335.18605 
L 244.350346 335.201837 
L 245.035037 334.763036 
L 245.605442 335.012676 
L 248.458153 335.094122 
L 250.055767 335.244822 
L 250.854402 335.059535 
L 251.425036 335.048632 
L 252.109613 335.23178 
L 252.794305 335.276222 
L 253.478882 335.192887 
L 254.848151 335.26819 
L 255.647015 335.208087 
L 257.016284 335.237053 
L 258.385553 335.268142 
L 259.526706 335.326225 
L 261.010033 335.247874 
L 262.493475 335.255462 
L 263.178052 335.285822 
L 263.862744 335.135246 
L 265.346185 335.305742 
L 271.622011 335.271431 
L 272.306703 335.3639 
L 273.676086 335.257863 
L 275.501816 335.334326 
L 277.783893 335.210249 
L 279.267335 335.276011 
L 283.603373 335.31613 
L 284.858583 335.336058 
L 294.671926 335.204495 
L 295.356503 335.34871 
L 296.041081 335.281386 
L 298.665789 335.352022 
L 302.317135 335.368088 
L 305.854423 335.313668 
L 306.539115 335.380214 
L 310.304633 335.274165 
L 315.097132 335.369533 
L 317.721612 335.375305 
L 332.099337 335.366381 
L 335.864855 335.359411 
L 338.717452 335.281035 
L 340.200893 335.390944 
L 343.053604 335.364386 
L 414.713427 335.387093 
L 433.312903 335.390419 
L 437.192593 335.386216 
L 462.068124 335.379337 
L 499.723766 335.375593 
L 504.173861 335.383945 
L 532.700852 335.383506 
L 532.700852 335.383506 
" style="fill:none;stroke:#1f77b4;stroke-linecap:square;stroke-width:1.5;"/>
   </g>
   <g id="line2d_56">
    <path clip-path="url(#p69b4241e3f)" d="M 93.271547 339.84 
L 93.271547 242.004706 
" style="fill:none;stroke:#008000;stroke-dasharray:1.5,2.475;stroke-dashoffset:0;stroke-opacity:0.75;stroke-width:1.5;"/>
   </g>
   <g id="line2d_57">
    <path clip-path="url(#p69b4241e3f)" d="M 159.682181 339.84 
L 159.682181 242.004706 
" style="fill:none;stroke:#ff0000;stroke-dasharray:1.5,2.475;stroke-dashoffset:0;stroke-opacity:0.75;stroke-width:1.5;"/>
   </g>
   <g id="line2d_58">
    <path clip-path="url(#p69b4241e3f)" d="M 193.344074 339.84 
L 193.344074 242.004706 
" style="fill:none;stroke:#008000;stroke-dasharray:1.5,2.475;stroke-dashoffset:0;stroke-opacity:0.75;stroke-width:1.5;"/>
   </g>
   <g id="line2d_59">
    <path clip-path="url(#p69b4241e3f)" d="M 258.956073 339.84 
L 258.956073 242.004706 
" style="fill:none;stroke:#ff0000;stroke-dasharray:1.5,2.475;stroke-dashoffset:0;stroke-opacity:0.75;stroke-width:1.5;"/>
   </g>
   <g id="patch_13">
    <path d="M 53.328125 339.84 
L 53.328125 242.004706 
" style="fill:none;stroke:#000000;stroke-linecap:square;stroke-linejoin:miter;stroke-width:0.8;"/>
   </g>
   <g id="patch_14">
    <path d="M 555.528125 339.84 
L 555.528125 242.004706 
" style="fill:none;stroke:#000000;stroke-linecap:square;stroke-linejoin:miter;stroke-width:0.8;"/>
   </g>
   <g id="patch_15">
    <path d="M 53.328125 339.84 
L 555.528125 339.84 
" style="fill:none;stroke:#000000;stroke-linecap:square;stroke-linejoin:miter;stroke-width:0.8;"/>
   </g>
   <g id="patch_16">
    <path d="M 53.328125 242.004706 
L 555.528125 242.004706 
" style="fill:none;stroke:#000000;stroke-linecap:square;stroke-linejoin:miter;stroke-width:0.8;"/>
   </g>
  </g>
 </g>
 <defs>
  <clipPath id="p98361816e0">
   <rect height="97.835294" width="502.2" x="53.328125" y="7.2"/>
  </clipPath>
  <clipPath id="p2608417c99">
   <rect height="97.835294" width="502.2" x="53.328125" y="124.602353"/>
  </clipPath>
  <clipPath id="p69b4241e3f">
   <rect height="97.835294" width="502.2" x="53.328125" y="242.004706"/>
  </clipPath>
 </defs>
</svg>
